<?xml version='1.0' encoding='utf-8'?>
<svg xmlns="http://www.w3.org/2000/svg" width="210mm" height="297mm" version="1.1" viewBox="0 0 210 297"> <path transform="scale(.26458)" d="m231.43 56.805c-15.829 0-28.57 12.744-28.57 28.572v625.71h-125.71c-12.663 0-22.857 10.193-22.857 22.855v34.287c0 12.663 10.195 22.857 22.857 22.857h645.71c12.663 0 22.857-10.195 22.857-22.857v-34.287c0-12.663-10.195-22.855-22.857-22.855h-125.71v-308.44c24.304 2.937 31.982 12.424 36.445 28.268 4.6643 16.555 2.0293 41.739-4.5039 66.783-8.8484 33.919-15.829 73.661-8.3105 108.64 3.7591 17.49 11.561 34.123 25.371 46.498s33.073 19.744 56.826 20.92c33.051 1.6357 57.868-11.697 69.654-32.961s12.191-47.036 8.873-72.748c-6.6349-51.425-29.735-104.24-38.547-121.87-37.296-74.591-24.303-162.33-24.303-162.33l0.18554-1.1582v-1.1738c0-7.4587-2.1526-12.675-4.8125-19.172-2.6599-6.4968-6.202-13.677-10.373-21.459-8.3421-15.565-19.196-33.444-30.021-50.521-21.652-34.155-43.229-65.07-43.229-65.07l-24.795 17.295s11.93 17.11 26.824 39.746v96.391c0 10.013 8.0485 18.074 18.045 18.074h36.408c-2.3518 30.066-3.1379 98.582 29.021 162.9 7.1982 14.396 29.813 67.336 35.604 112.21 2.895 22.438 1.1887 42.458-5.3301 54.219s-16.197 18.685-41.715 17.422c-18.555-0.91824-30.091-6.0221-38.143-13.236-8.0512-7.2142-13.174-17.282-15.98-30.34-5.6132-26.116-0.28651-62.855 8.0078-94.65 7.1698-27.484 11.675-56.582 4.3418-82.609-7.2891-25.872-30.041-47.022-65.545-50.477v-286.87c0-15.829-12.742-28.572-28.57-28.572h-337.14zm6.4356 74h323.42v234.29h-323.42v-234.29z" fill-rule="evenodd"/> </svg>