<?xml version="1.0" encoding="UTF-8"?>
<!DOCTYPE svg PUBLIC "-//W3C//DTD SVG 1.1//EN" "http://www.w3.org/Graphics/SVG/1.1/DTD/svg11.dtd">
<!-- Creator: CorelDRAW Home & Student X7 -->
<svg xmlns="http://www.w3.org/2000/svg" xml:space="preserve" width="149.188mm" height="121.143mm" version="1.1" style="shape-rendering:geometricPrecision; text-rendering:geometricPrecision; image-rendering:optimizeQuality; fill-rule:evenodd; clip-rule:evenodd"
viewBox="0 0 15352 12466"
 xmlns:xlink="http://www.w3.org/1999/xlink">
 <defs>
  <style type="text/css">
   <![CDATA[
    .fil0 {fill:#0066CC}
    .fil2 {fill:#FFCC00}
    .fil1 {fill:white}
   ]]>
  </style>
 </defs>
 <g id="Ebene_x0020_1">
  <metadata id="CorelCorpID_0Corel-Layer"/>
  <path class="fil0" d="M4113 2976c250,88 485,218 710,367 140,-604 297,-855 680,-1361 1477,-1807 4323,-1632 5470,502 99,184 182,377 248,598 258,850 -107,668 916,664 668,-3 1287,170 1732,625 287,295 463,508 613,943 419,1221 -215,2546 -1500,2973 -443,147 -966,111 -1455,110 -142,0 -1579,-17 -1585,13l-122 179c-114,172 -141,199 -281,349 -58,61 -118,101 -172,190 643,-17 1299,-3 1943,-4 626,-1 1240,48 1824,-115 967,-271 1676,-974 2013,-1845 686,-1771 -422,-3733 -2259,-4095 -334,-66 -573,-44 -908,-59 -68,-109 -151,-631 -552,-1218 -760,-1110 -2058,-1865 -3544,-1786 -1160,62 -2102,568 -2734,1236l-217 236c-140,162 -263,314 -381,504 -176,284 -333,608 -439,994z"/>
  <path class="fil0" d="M4762 3654c-572,-404 -1171,-516 -1475,-548 -793,-82 -1686,205 -2222,704 -89,82 -164,131 -244,229 -259,313 -403,474 -579,897 -897,2157 822,4491 3136,4201 516,-64 1107,-296 1397,-573l-394 -603c-1572,1157 -3678,0 -3638,-1898 18,-862 518,-1617 1247,-1996 571,-298 1381,-321 1988,-21 144,71 432,285 521,309l182 -236c62,-89 55,-238 68,-357 5,-37 8,-72 13,-108z"/>
  <path class="fil1" d="M9840 4470l828 800 -789 491c-964,556 -702,541 -1013,366l-580 -331c-62,42 -152,113 -217,141 37,75 589,633 686,792 202,-47 3097,-1483 3333,-1613 201,-110 993,-504 922,-693 -449,-178 -1434,392 -1502,401 -50,6 -1161,-562 -1293,-634 -60,29 -132,86 -188,125l-159 118c-31,32 1,-15 -28,37z"/>
  <path class="fil2" d="M1200 12466c451,0 719,-160 959,-418l-327 -331c-184,168 -348,275 -615,275 -401,0 -679,-335 -679,-736l0 -6c0,-402 284,-729 679,-729 234,0 417,100 598,264l328 -378c-218,-214 -482,-361 -923,-361 -719,0 -1220,545 -1220,1210l0 7c0,672 511,1203 1200,1203zm1340 -40l508 0 0 -2440 -508 0 0 2440zm1581 33c258,0 408,-137 525,-287l0 254 508 0 0 -1792 -508 0 0 1000c0,241 -124,364 -317,364 -194,0 -308,-123 -308,-364l0 -1000 -508 0 0 1160c0,411 224,665 608,665zm2554 0c424,0 816,-327 816,-925l0 -7c0,-598 -398,-926 -816,-926 -264,0 -435,124 -558,291l0 -906 -508 0 0 2440 508 0 0 -234c120,144 287,267 558,267zm-130 -431c-238,0 -435,-197 -435,-494l0 -7c0,-298 197,-495 435,-495 237,0 437,197 437,495l0 7c0,300 -200,494 -437,494z"/>
  <path class="fil1" d="M11006 12463c288,0 477,-141 591,-298l0 261 234 0 0 -1056c0,-221 -57,-388 -167,-505 -121,-127 -298,-190 -528,-190 -237,0 -414,56 -594,143l72 211c152,-74 304,-127 496,-127 307,0 487,160 487,471l0 60c-145,-43 -294,-73 -502,-73 -414,0 -699,194 -699,558l0 7c0,354 307,538 610,538zm48 -204c-222,0 -411,-127 -411,-344l0 -7c0,-217 170,-358 477,-358 199,0 360,37 480,74l0 167c0,274 -246,468 -546,468zm1836 200c325,0 581,-190 581,-518l0 -6c0,-311 -271,-415 -524,-495 -218,-70 -421,-134 -421,-297l0 -7c0,-144 124,-251 317,-251 158,0 331,64 483,167l111 -194c-168,-117 -389,-190 -588,-190 -323,0 -556,197 -556,495l0 6c0,318 284,411 540,488 215,64 408,131 408,304l0 7c0,167 -142,274 -338,274 -193,0 -389,-80 -566,-220l-123 183c183,158 442,254 676,254zm1033 -33l244 0 0 -989c0,-325 208,-542 490,-542 287,0 452,201 452,522l0 1009 243 0 0 -1073c0,-411 -231,-692 -626,-692 -281,0 -452,151 -559,338l0 -1013 -244 0 0 2440z"/>
  <path class="fil1" d="M9047 12466c424,0 692,-164 936,-411l-174 -170c-224,213 -435,337 -756,337 -514,0 -905,-424 -905,-966l0 -6c0,-539 387,-960 905,-960 318,0 539,134 736,321l180 -194c-234,-220 -488,-371 -912,-371 -689,0 -1183,548 -1183,1210l0 7c0,672 498,1203 1173,1203z"/>
  <g id="_346226400">
   <path class="fil2" d="M9111 8453c-42,-101 -385,-421 -483,-531 -72,35 -229,187 -385,271 -510,275 -1113,311 -1635,73 -631,-289 -1063,-925 -1075,-1631 -15,-843 484,-1432 1010,-1696 490,-247 1129,-265 1644,-4 182,92 274,176 412,274 54,-45 443,-496 465,-546 -184,-155 -306,-258 -541,-379 -210,-107 -454,-187 -712,-233 -1494,-268 -3055,870 -3018,2584 45,2093 2398,3254 4061,2031 97,-71 172,-152 257,-213z"/>
   <rect class="fil2" x="4176" y="5734" width="3511" height="439"/>
   <rect class="fil2" x="4176" y="6955" width="3511" height="439"/>
  </g>
 </g>
</svg>
