<svg xmlns="http://www.w3.org/2000/svg" viewBox="0 0 256 256">
  <rect width="256" height="256" fill="#ffcc00"/>
  <rect x="65" y="34" width="88" height="169" rx="5" fill="#000000"/>
  <rect x="78" y="49" width="61" height="56" fill="#ffcc00"/>
  <rect x="39" y="194" width="136" height="14" rx="4" fill="#000000"/>
  <path d="M153 63c23 10 32 31 29 63l-4 42c-1 12 5 20 17 20 11 0 17-7 17-20v-39" fill="none" stroke="#000000" stroke-width="11" stroke-linecap="round" stroke-linejoin="round"/>
  <path d="M196 103h22c5 0 9 4 9 9v28c0 5-4 9-9 9h-22z" fill="#000000"/>
  <path d="M207 80c9 9 13 19 13 35" fill="none" stroke="#000000" stroke-width="8" stroke-linecap="round"/>
</svg>
