<svg xmlns="http://www.w3.org/2000/svg" viewBox="0 0 256 256">
  <rect width="256" height="256" rx="28" fill="#f6c21a"/>
  <g fill="#000000">
    <rect x="58" y="34" width="88" height="152" rx="6"/>
    <rect x="70" y="48" width="64" height="42" fill="#f6c21a"/>
    <rect x="32" y="182" width="132" height="14" rx="4"/>
    <path d="M146 56h26c13 0 24 11 24 24v78c0 10 8 18 18 18 6 0 10-2 14-7l4 3c-5 8-12 12-22 12-16 0-29-13-29-29V80c0-6-5-11-11-11h-24z"/>
    <path d="M185 87c0-3 2-5 5-5h8c3 0 5 2 5 5v34c0 6-5 11-11 11h-2c-3 0-5-2-5-5z"/>
    <path d="M169 104c20 10 31 32 31 60h-12c0-22-8-39-24-48z"/>
  </g>
</svg>
